<?xml version="1.0" encoding="UTF-8"?>
<!DOCTYPE svg PUBLIC "-//W3C//DTD SVG 1.1//EN" "http://www.w3.org/Graphics/SVG/1.1/DTD/svg11.dtd">
<!-- Creator: CorelDRAW -->
<svg xmlns="http://www.w3.org/2000/svg" xml:space="preserve" width="42.0927mm" height="12.7mm" version="1.1" style="shape-rendering:geometricPrecision; text-rendering:geometricPrecision; image-rendering:optimizeQuality; fill-rule:evenodd; clip-rule:evenodd"
viewBox="0 0 255.58 77.11"
 xmlns:xlink="http://www.w3.org/1999/xlink"
 xmlns:xodm="http://www.corel.com/coreldraw/odm/2003">
 <defs>
  <style type="text/css">
   <![CDATA[
    .fil0 {fill:#FEFEFE}
    .fil3 {fill:#F9FAFB}
    .fil4 {fill:url(#id0)}
    .fil5 {fill:url(#id1)}
    .fil2 {fill:url(#id2);fill-rule:nonzero}
    .fil1 {fill:url(#id3);fill-rule:nonzero}
   ]]>
  </style>
  <linearGradient id="id0" gradientUnits="userSpaceOnUse" x1="175.94" y1="37.9" x2="217.95" y2="55.61">
   <stop offset="0" style="stop-opacity:1; stop-color:#1E3A8A"/>
   <stop offset="1" style="stop-opacity:1; stop-color:#10B981"/>
  </linearGradient>
  <linearGradient id="id1" gradientUnits="userSpaceOnUse" xlink:href="#id0" x1="225.79" y1="45.77" x2="243.22" y2="51.86">
  </linearGradient>
  <linearGradient id="id2" gradientUnits="userSpaceOnUse" x1="66.66" y1="22.32" x2="175.67" y2="22.32">
   <stop offset="0" style="stop-opacity:1; stop-color:#10B981"/>
   <stop offset="1" style="stop-opacity:1; stop-color:#1E3A8A"/>
  </linearGradient>
  <linearGradient id="id3" gradientUnits="userSpaceOnUse" xlink:href="#id0" x1="6.87" y1="49.93" x2="165.85" y2="50.54">
  </linearGradient>
 </defs>
 <g id="Camada_x0020_1">
  <metadata id="CorelCorpID_0Corel-Layer"/>
  <path class="fil0" d="M122.53 19.19c-0.11,-0.19 -0.18,-0.4 -0.23,-0.63 -0.05,-0.26 -0.09,-0.51 -0.12,-0.77 -0.03,-0.28 -0.04,-0.56 -0.04,-0.84 0,-1.49 0.44,-2.88 1.31,-4.09 1.04,-1.45 2.57,-2.16 4.34,-2.16 0.74,0 1.46,0.14 2.11,0.49 1.13,0.6 1.59,1.75 1.59,2.98 0,0.86 -0.27,1.69 -0.66,2.45 -0.35,0.68 -0.76,1.32 -1.24,1.91 -0.47,0.58 -0.99,1.12 -1.59,1.57 -0.28,0.21 -0.58,0.41 -0.89,0.57 0.26,0.47 0.33,1.01 0.19,1.55 -0.42,1.63 -0.96,3.22 -1.57,4.78 -0.59,1.48 -1.22,2.95 -1.9,4.39 -0.3,0.69 -0.61,1.37 -0.92,2.06 -0.06,0.13 -0.12,0.27 -0.18,0.41 0.02,-0.04 0.05,-0.07 0.07,-0.11 0.02,-0.03 0.04,-0.06 0.07,-0.1 0.34,-0.46 0.67,-0.92 1.01,-1.38 0.48,-0.65 1.05,-1.25 1.64,-1.79 0.57,-0.53 1.33,-0.7 2.07,-0.46 0.56,0.18 1.01,0.54 1.42,0.95 0.69,0.68 0.82,1.71 0.34,2.55 -0.15,0.27 -0.31,0.54 -0.46,0.8 -0.13,0.25 -0.25,0.51 -0.38,0.76 -0.14,0.27 -0.28,0.53 -0.43,0.79 -0.4,0.75 -0.81,1.49 -1.24,2.23 -0.47,0.8 -1.02,1.55 -1.65,2.24 -0.71,0.76 -1.55,1.35 -2.49,1.79 -1.07,0.49 -2.25,0.68 -3.42,0.68 -1.06,0 -2.12,-0.19 -3.01,-0.7 -0.95,0.5 -2,0.7 -3.08,0.7 -1.44,0 -2.77,-0.44 -3.83,-1.43 -0.69,-0.64 -1.11,-1.43 -1.35,-2.29 -0.05,0.05 -0.1,0.1 -0.16,0.15 -1.26,1.24 -2.76,2.19 -4.35,2.93 -0.5,0.24 -1.06,0.38 -1.6,0.48 -0.45,0.08 -0.93,0.16 -1.38,0.16 -1.42,0 -2.69,-0.53 -3.69,-1.54 -1.05,-1.05 -1.54,-2.4 -1.54,-3.88 0,-1.99 0.37,-3.92 1.09,-5.78 0.71,-1.84 1.66,-3.57 2.83,-5.16 0.51,-0.69 1.05,-1.35 1.63,-1.98 -0.09,0.06 -0.18,0.12 -0.27,0.18 -2.74,1.78 -5.74,3.05 -8.89,3.89 -0.9,0.24 -1.82,0.38 -2.75,0.41 -0.72,0.02 -1.44,0.07 -2.16,0.14 -0.23,0.02 -0.42,0.01 -0.64,-0.03 -0.1,-0.02 -0.19,-0.04 -0.29,-0.07 -0.99,2.27 -1.86,4.6 -2.64,6.95 -0.01,0.03 -0.02,0.06 -0.03,0.09 -0.31,0.81 -0.58,1.64 -0.83,2.47 -0.21,0.7 -0.31,1.41 -0.31,2.14 0,0.38 0.04,0.78 0.15,1.15 0.19,0.61 0.11,1.21 -0.24,1.75 -0.34,0.54 -0.85,0.87 -1.48,0.97 -0.4,0.06 -0.82,0.12 -1.23,0.12 -1.57,0 -3.02,-0.58 -3.81,-2 -0.64,-1.14 -0.79,-2.56 -0.79,-3.84 0,-0.8 0.06,-1.6 0.17,-2.4 0.11,-0.82 0.28,-1.63 0.55,-2.42 1.7,-5.09 3.79,-10.04 6.26,-14.8 2.1,-4.06 4.46,-7.98 7.05,-11.74 -1.29,0.17 -2.56,0.46 -3.79,0.83 -2.14,0.64 -4.17,1.56 -6.04,2.77 -1.76,1.13 -3.29,2.53 -4.53,4.22 -1.11,1.52 -1.63,3.2 -1.63,5.08 0,2.18 1.35,4.02 2.87,5.46 0.54,0.51 0.76,1.2 0.63,1.93 -0.14,0.73 -0.6,1.29 -1.29,1.57 -0.44,0.18 -0.9,0.28 -1.38,0.28 -0.19,0 -0.39,0 -0.58,0 -1.25,0 -2.44,-0.27 -3.54,-0.85 -1.04,-0.54 -1.93,-1.29 -2.65,-2.21 -0.73,-0.93 -1.26,-1.98 -1.63,-3.1 -0.38,-1.18 -0.56,-2.4 -0.56,-3.64 0,-2.36 0.53,-4.62 1.66,-6.69 1.07,-1.95 2.47,-3.65 4.17,-5.1 1.71,-1.46 3.6,-2.68 5.62,-3.67 1.98,-0.98 4.02,-1.81 6.12,-2.47 1.95,-0.61 3.95,-1.1 5.98,-1.41 1.67,-0.26 3.39,-0.45 5.07,-0.45 1.98,0 3.97,0.18 5.9,0.63 1.76,0.41 3.47,1.06 4.99,2.06 1.44,0.95 2.62,2.18 3.47,3.68 0.9,1.58 1.28,3.33 1.28,5.13 0,1.96 -0.58,3.85 -1.45,5.58 -0.01,0.02 -0.02,0.03 -0.03,0.05 -0.81,1.51 -1.76,2.9 -2.86,4.15 1.2,-0.85 2.48,-1.56 3.85,-2.12 0.03,-0.01 0.05,-0.02 0.08,-0.03 0.58,-0.21 1.16,-0.4 1.75,-0.58 0.74,-0.22 1.49,-0.34 2.26,-0.34 1.39,0 2.65,0.43 3.76,1.19 0.07,-0.01 0.14,-0.03 0.21,-0.04 0.37,-0.05 0.78,-0.05 1.15,-0.05 0.57,0 1.14,0.05 1.69,0.2 0.55,0.15 0.98,0.44 1.3,0.82 0.55,-0.57 1.23,-0.97 2.02,-1.15zm-33.69 3.53c0.28,-0.12 0.56,-0.24 0.85,-0.37 1.22,-0.52 2.42,-1.11 3.58,-1.77 1.1,-0.64 2.14,-1.36 3.12,-2.17 0.99,-0.83 1.83,-1.84 2.55,-2.91 0.93,-1.38 1.47,-2.87 1.47,-4.54 0,-0.81 -0.16,-1.61 -0.74,-2.2 -0.47,-0.48 -1.21,-0.87 -1.95,-1.17 -1.22,1.97 -2.44,3.94 -3.65,5.91 -1.46,2.38 -2.85,4.79 -4.18,7.25 -0.35,0.65 -0.7,1.31 -1.04,1.97zm85.74 6.19c0.64,-0.05 1.21,0.16 1.67,0.62l0.18 0.18c0.05,0.03 0.11,0.06 0.16,0.08 1.03,0.5 1.47,1.73 1.01,2.77 -0.63,1.42 -1.48,2.72 -2.47,3.91 -1.02,1.22 -2.18,2.31 -3.47,3.23 -1.29,0.92 -2.7,1.66 -4.19,2.21 -1.52,0.56 -3.1,0.85 -4.72,0.85 -1.82,0 -3.58,-0.46 -4.86,-1.73 -0.28,0.25 -0.58,0.48 -0.89,0.69 -1.11,0.75 -2.39,1.09 -3.72,1.09 -1.55,0 -2.91,-0.6 -3.85,-1.84 -0.54,-0.71 -0.86,-1.51 -1.04,-2.36 -0.64,0.6 -1.31,1.17 -2,1.72 -0.81,0.63 -1.66,1.21 -2.58,1.67 -0.96,0.48 -2,0.77 -3.08,0.77 -0.91,0 -1.79,-0.19 -2.6,-0.61 -0.7,-0.37 -1.31,-0.85 -1.82,-1.45 -0.5,-0.58 -0.88,-1.24 -1.12,-1.97 -0.22,-0.64 -0.36,-1.31 -0.36,-2 0,-0.8 0.11,-1.59 0.31,-2.36 0.02,-0.08 0.05,-0.16 0.08,-0.24 0.89,-3.37 2.39,-6.48 4.65,-9.15 2.37,-2.8 5.41,-4.74 8.83,-6 1.06,-0.39 2.17,-0.62 3.29,-0.62 0.68,0 1.33,0.08 1.96,0.25l1.18 -2.1c0.92,-1.63 1.87,-3.23 2.83,-4.84 0.94,-1.57 1.9,-3.14 2.87,-4.69 0.94,-1.58 2.33,-2.79 4.25,-2.79 0.54,0 1.07,0.09 1.59,0.22 0.72,0.18 1.38,0.55 1.97,0.98 0.89,0.65 1.14,1.86 0.57,2.81l-0.91 1.52c-2.47,4.12 -4.87,8.28 -7.14,12.51 -0.6,1.12 -1.16,2.25 -1.69,3.41 0.3,-0.42 0.62,-0.84 0.95,-1.24 1.32,-1.6 2.86,-3 4.63,-4.1 1.74,-1.09 3.66,-1.75 5.72,-1.75 1.48,0 2.84,0.49 3.87,1.56 1,1.04 1.48,2.35 1.48,3.79 0,1.59 -0.36,3.12 -1.21,4.48 -0.11,0.18 -0.23,0.36 -0.36,0.53zm-10.49 6.82c0.13,0 0.26,0 0.34,-0 0.82,-0.04 1.61,-0.22 2.37,-0.54 0.85,-0.36 1.65,-0.82 2.39,-1.36 0.64,-0.47 1.24,-0.99 1.81,-1.55 -0.73,0.49 -1.5,0.93 -2.29,1.32 -1.16,0.57 -2.33,1.11 -3.52,1.62l-1.11 0.51zm-53.58 -9.63c-1.67,1.32 -3.13,2.87 -4.34,4.64 -0.62,0.9 -1.13,1.84 -1.55,2.82 0.3,-0.3 0.6,-0.63 0.87,-0.96l5.03 -6.49zm33.39 7.86c0.2,-0.17 0.39,-0.35 0.58,-0.52 0.92,-0.87 1.8,-1.78 2.63,-2.73 0.84,-0.95 1.62,-1.95 2.32,-3 0.47,-0.7 0.91,-1.43 1.31,-2.17 -1.78,1.15 -3.35,2.56 -4.58,4.28 -0.92,1.29 -1.67,2.68 -2.26,4.14z"/>
  <path class="fil0" d="M147.88 51.67c0.01,-0.01 0.03,-0.02 0.04,-0.04 1.73,-1.4 3.63,-2.56 5.69,-3.4 0.03,-0.01 0.06,-0.02 0.09,-0.04 0.66,-0.24 1.32,-0.46 1.98,-0.66 0.83,-0.25 1.7,-0.38 2.57,-0.38 1.58,0 3.01,0.49 4.26,1.34 0.08,-0.02 0.16,-0.03 0.23,-0.04 0.42,-0.06 0.88,-0.06 1.31,-0.06 0.64,0 1.3,0.05 1.92,0.22 1.59,0.44 2.29,1.88 2.29,3.43 0,0.8 -0.15,1.58 -0.44,2.32 -0.01,0.03 -0.02,0.05 -0.03,0.08 -0.29,0.67 -0.6,1.33 -0.92,1.98 -0.31,0.62 -0.63,1.23 -0.96,1.84 -0.53,1.01 -1.04,2.03 -1.52,3.06 0.81,-0.58 1.89,-0.6 2.74,-0.03 0.93,0.63 1.3,1.77 0.92,2.82 -0.14,0.37 -0.28,0.77 -0.39,1.15 -0.01,0.02 -0.01,0.05 -0.02,0.07 -0,0.14 -0.02,0.26 -0.04,0.4 -0.16,0.86 -0.36,1.72 -0.6,2.57 -0.29,1.07 -0.73,2.08 -1.32,3.02 -0.64,1.02 -1.46,1.88 -2.46,2.55 -1.21,0.82 -2.63,1.14 -4.08,1.14 -1.63,0 -3.15,-0.5 -4.34,-1.62 -0.78,-0.73 -1.26,-1.63 -1.53,-2.6 -0.06,0.06 -0.12,0.12 -0.18,0.17 -1.43,1.4 -3.13,2.49 -4.94,3.33 -0.57,0.28 -1.2,0.43 -1.82,0.54 -0.51,0.09 -1.05,0.18 -1.57,0.18 -1.61,0 -3.05,-0.6 -4.19,-1.74 -1.19,-1.19 -1.74,-2.72 -1.74,-4.4 0,-2.26 0.42,-4.45 1.23,-6.56 0.06,-0.17 0.13,-0.33 0.2,-0.49 -0.56,0.15 -1.13,0.23 -1.71,0.23 -0.83,0 -1.55,-0.38 -2,-1.07 -0.73,0.86 -1.41,1.77 -2.05,2.71 -2.13,3.14 -3.99,6.44 -5.58,9.89 -0.27,0.58 -0.7,0.99 -1.3,1.23 -1.5,0.6 -3.29,0.99 -4.69,-0.09 -0.13,-0.1 -0.25,-0.21 -0.36,-0.32 -1.11,0.44 -2.31,0.62 -3.51,0.62 -1.83,0 -3.62,-0.49 -4.81,-1.97 -0.36,-0.44 -0.63,-0.93 -0.83,-1.44 -1.42,0.99 -2.96,1.79 -4.58,2.39 -1.72,0.63 -3.52,0.97 -5.36,0.97 -2.09,0 -4.12,-0.54 -5.58,-2.03 -0.35,0.27 -0.71,0.53 -1.08,0.76 -1.17,0.74 -2.48,1.27 -3.88,1.27 -1.56,0 -3.09,-0.37 -4.34,-1.33 -1.31,-1.02 -2,-2.46 -2,-4.11 0,-0.83 0.12,-1.67 0.43,-2.44 0.41,-1.2 0.86,-2.39 1.34,-3.57 0.26,-0.65 0.53,-1.29 0.79,-1.94 -0.47,0.72 -0.92,1.47 -1.35,2.22 -0.77,1.37 -1.55,2.75 -2.28,4.14 -0.68,1.29 -1.37,2.57 -2.12,3.81 -0.9,1.6 -2.25,3.07 -4.23,3.07 -1.36,0 -2.65,-0.63 -3.76,-1.37 -0.88,-0.59 -1.26,-1.63 -0.98,-2.64 0.54,-1.94 1.15,-3.87 1.81,-5.77 0.35,-1 0.7,-2.01 1.04,-3.02 -0.89,1.19 -1.74,2.41 -2.55,3.66 -0.86,1.33 -1.73,2.65 -2.58,3.99l-2.9 4.56c-0.67,1.05 -2,1.42 -3.11,0.86l-1.5 -0.75 -0.51 -0.25c-0.11,0.06 -0.23,0.11 -0.34,0.17 -1.21,0.56 -2.55,0.77 -3.88,0.77 -1.83,0 -3.62,-0.49 -4.81,-1.97 -1.1,-1.36 -1.4,-3.16 -1.4,-4.86 0,-1.16 0.31,-2.4 0.67,-3.51 0.33,-1.03 0.7,-2.04 1.09,-3.05 -0.74,0.27 -1.52,0.42 -2.33,0.42 -0.83,0 -1.55,-0.38 -2,-1.07 -0.73,0.86 -1.41,1.77 -2.05,2.71 -2.13,3.14 -3.99,6.44 -5.58,9.89 -0.27,0.58 -0.7,0.99 -1.3,1.23 -1.5,0.6 -3.29,0.99 -4.69,-0.09 -0.85,-0.66 -1.39,-1.6 -1.74,-2.62 -0.19,-0.55 -0.18,-1.08 0.03,-1.62l1.72 -4.54c0.89,-2.48 1.8,-4.94 2.74,-7.4 0.7,-1.8 1.46,-3.57 2.28,-5.32 -0.53,0.43 -1.09,0.83 -1.68,1.21 -3.11,2.01 -6.51,3.46 -10.09,4.42 -1.02,0.27 -2.06,0.44 -3.12,0.46 -0.82,0.02 -1.63,0.08 -2.45,0.16 -0.26,0.03 -0.48,0.01 -0.73,-0.04 -0.11,-0.02 -0.22,-0.05 -0.32,-0.08 -1.12,2.58 -2.11,5.21 -3,7.88 -0.01,0.04 -0.02,0.07 -0.04,0.11 -0.35,0.92 -0.66,1.86 -0.94,2.81 -0.23,0.79 -0.35,1.6 -0.35,2.42 0,0.43 0.04,0.89 0.17,1.3 0.21,0.69 0.12,1.37 -0.27,1.99 -0.39,0.61 -0.96,0.99 -1.68,1.1 -0.46,0.07 -0.94,0.13 -1.4,0.13 -1.78,0 -3.43,-0.66 -4.33,-2.26 -0.72,-1.29 -0.9,-2.91 -0.9,-4.36 0,-0.91 0.07,-1.82 0.2,-2.72 0.13,-0.93 0.32,-1.85 0.62,-2.74 1.93,-5.77 4.3,-11.39 7.1,-16.79 2.38,-4.61 5.06,-9.05 8,-13.32 -1.46,0.19 -2.91,0.52 -4.3,0.94 -2.42,0.73 -4.73,1.78 -6.86,3.14 -2,1.28 -3.73,2.87 -5.14,4.78 -1.26,1.72 -1.85,3.63 -1.85,5.77 0,2.47 1.53,4.56 3.26,6.2 0.61,0.58 0.87,1.36 0.71,2.19 -0.16,0.83 -0.68,1.47 -1.46,1.79 -0.5,0.2 -1.02,0.32 -1.57,0.32 -0.22,0 -0.44,0 -0.66,0 -1.41,0 -2.77,-0.31 -4.02,-0.96 -1.18,-0.62 -2.19,-1.46 -3.01,-2.51 -0.83,-1.05 -1.43,-2.24 -1.84,-3.51 -0.44,-1.34 -0.64,-2.72 -0.64,-4.13 0,-2.68 0.6,-5.24 1.89,-7.59 1.21,-2.21 2.81,-4.14 4.73,-5.79 1.94,-1.66 4.09,-3.04 6.37,-4.16 2.24,-1.11 4.56,-2.05 6.95,-2.8 2.22,-0.69 4.48,-1.25 6.78,-1.6 1.89,-0.29 3.84,-0.51 5.76,-0.51 2.25,0 4.5,0.21 6.7,0.72 2,0.47 3.94,1.2 5.66,2.34 1.63,1.08 2.97,2.48 3.94,4.18 1.02,1.79 1.46,3.77 1.46,5.82 0,2.22 -0.66,4.36 -1.65,6.33 -0.01,0.02 -0.02,0.04 -0.03,0.06 -0.5,0.92 -1.04,1.81 -1.63,2.66 0.27,-0.06 0.54,-0.09 0.83,-0.09 0.91,0 1.88,0.07 2.74,0.39 0.68,0.25 1.17,0.66 1.5,1.17 0.68,-0.56 1.41,-1.07 2.19,-1.5 1.15,-0.64 2.4,-1.03 3.73,-1.03 1.34,0 2.54,0.55 3.42,1.57 0.07,0.08 0.14,0.17 0.2,0.25 0.58,-0.53 1.27,-0.9 2.06,-1.09 -0.12,-0.22 -0.2,-0.45 -0.26,-0.72 -0.06,-0.29 -0.1,-0.58 -0.13,-0.87 -0.04,-0.32 -0.05,-0.64 -0.05,-0.95 0,-1.7 0.5,-3.27 1.49,-4.64 1.18,-1.64 2.92,-2.46 4.93,-2.46 0.83,0 1.66,0.16 2.4,0.55 1.29,0.67 1.81,1.99 1.81,3.38 0,0.98 -0.31,1.92 -0.75,2.79 -0.4,0.77 -0.86,1.5 -1.41,2.17 -0.53,0.66 -1.13,1.27 -1.8,1.78 -0.32,0.24 -0.66,0.47 -1.01,0.64 0.29,0.53 0.37,1.14 0.21,1.76 -0.48,1.84 -1.08,3.65 -1.78,5.42 -0.66,1.68 -1.38,3.34 -2.15,4.98 -0.34,0.78 -0.69,1.56 -1.05,2.33 -0.07,0.15 -0.14,0.31 -0.21,0.46 0.03,-0.04 0.05,-0.08 0.08,-0.12 0.03,-0.04 0.05,-0.07 0.07,-0.11 0.1,-0.13 0.19,-0.27 0.29,-0.4l1.92 -4.43 4.49 -10.37c0.43,-1 1.43,-1.57 2.51,-1.43l1.11 0.14c0.04,0 0.07,0.01 0.11,0.02 0.7,0.12 1.39,0.31 2.03,0.62 0.72,0.35 1.2,0.89 1.5,1.54 0.71,-0.57 1.48,-1.06 2.3,-1.48 1.25,-0.63 2.6,-0.92 3.99,-0.92 0.56,0 1.14,0.11 1.69,0.23 0.55,0.12 1.14,0.27 1.64,0.53 0.16,0.09 0.29,0.17 0.44,0.29 0.62,0.53 1.03,1.21 1.24,1.98 0.79,-0.65 1.64,-1.22 2.54,-1.72 1.21,-0.67 2.54,-1.12 3.89,-1.42 0.03,-0.01 0.06,-0.01 0.1,-0.02 0.23,-0.06 0.46,-0.09 0.7,-0.09 1.46,0 2.77,0.57 3.71,1.69 0.85,1.01 1.25,2.23 1.25,3.55 0,0.03 -0,0.06 -0,0.1 -0.01,0.16 -0.01,0.32 -0.02,0.47 1.38,-1.56 2.95,-2.92 4.72,-4.03 1.97,-1.23 4.15,-1.99 6.49,-1.99 1.68,0 3.22,0.56 4.4,1.77 0.94,0.97 1.47,2.15 1.63,3.45l0.75 -1.6c0.7,-1.5 1.86,-2.54 3.37,-2.9 -0.12,-0.22 -0.21,-0.45 -0.26,-0.72 -0.06,-0.29 -0.1,-0.58 -0.13,-0.87 -0.04,-0.32 -0.05,-0.64 -0.05,-0.95 0,-1.7 0.5,-3.27 1.49,-4.64 1.18,-1.64 2.92,-2.46 4.93,-2.46 0.83,0 1.65,0.16 2.4,0.55 1.29,0.67 1.81,1.99 1.81,3.38 0,0.98 -0.31,1.92 -0.75,2.79 -0.39,0.77 -0.86,1.5 -1.4,2.17 -0.53,0.66 -1.13,1.27 -1.8,1.78 -0.32,0.24 -0.66,0.47 -1.01,0.64 0.29,0.53 0.37,1.14 0.21,1.76 -0.31,1.18 -0.67,2.34 -1.07,3.49 0.56,-1.27 1.15,-2.52 1.76,-3.76 0.38,-0.75 0.94,-1.38 1.6,-1.89 0.78,-0.61 1.68,-1.03 2.7,-1.03 0.91,0 1.88,0.07 2.74,0.39 0.68,0.25 1.17,0.66 1.5,1.17 0.68,-0.56 1.41,-1.07 2.19,-1.5 1.15,-0.64 2.4,-1.03 3.73,-1.03 1.35,0 2.54,0.55 3.42,1.57 0.64,0.75 1,1.64 1.14,2.58zm-120.3 0.59c0.32,-0.14 0.64,-0.28 0.96,-0.41 1.39,-0.59 2.75,-1.25 4.06,-2.01 1.24,-0.72 2.43,-1.54 3.54,-2.46 1.13,-0.94 2.08,-2.09 2.9,-3.31 1.05,-1.56 1.66,-3.26 1.66,-5.15 0,-0.92 -0.18,-1.82 -0.84,-2.5 -0.54,-0.55 -1.37,-0.99 -2.21,-1.33 -1.38,2.23 -2.77,4.47 -4.14,6.71 -1.65,2.7 -3.23,5.44 -4.74,8.22 -0.4,0.74 -0.8,1.49 -1.18,2.24zm85.27 10.84c-0.83,0.56 -1.7,1.05 -2.6,1.5 -1.31,0.65 -2.64,1.26 -3.99,1.84l-1.26 0.58c0.14,0 0.29,0 0.38,-0 0.93,-0.04 1.83,-0.25 2.69,-0.61 0.97,-0.41 1.87,-0.93 2.72,-1.55 0.73,-0.54 1.41,-1.13 2.06,-1.75zm12.13 -2.66c-0.24,0.55 -0.49,1.1 -0.75,1.64 -0.34,0.78 -0.69,1.56 -1.04,2.33 -0.07,0.15 -0.14,0.31 -0.21,0.46 0.03,-0.04 0.05,-0.08 0.08,-0.12 0.02,-0.04 0.05,-0.07 0.07,-0.11 0.2,-0.27 0.39,-0.54 0.59,-0.81 0.41,-1.13 0.83,-2.27 1.26,-3.4zm31.13 -4.36c-1.9,1.5 -3.55,3.25 -4.92,5.26 -0.7,1.02 -1.28,2.09 -1.76,3.2 0.34,-0.34 0.68,-0.71 0.98,-1.09l5.7 -7.37z"/>
  <path class="fil1" d="M32.06 31.87c-0.37,-0.04 -0.73,-0.07 -1.11,-0.07 -0.37,0 -0.73,0 -1.11,0 -2.31,0 -4.79,0.41 -7.47,1.21 -2.67,0.8 -5.17,1.94 -7.46,3.42 -2.31,1.48 -4.23,3.27 -5.78,5.39 -1.55,2.12 -2.32,4.52 -2.32,7.19 0,2.76 1.34,5.42 4.01,7.95 -0.23,0.09 -0.45,0.14 -0.66,0.14 -0.21,0 -0.42,0 -0.66,0 -1.06,0 -2.02,-0.23 -2.9,-0.69 -0.87,-0.46 -1.62,-1.08 -2.24,-1.87 -0.62,-0.79 -1.1,-1.7 -1.44,-2.76 -0.35,-1.06 -0.52,-2.19 -0.52,-3.39 0,-2.35 0.53,-4.49 1.59,-6.43 1.06,-1.94 2.45,-3.64 4.18,-5.11 1.73,-1.48 3.69,-2.76 5.87,-3.84 2.19,-1.08 4.39,-1.97 6.6,-2.66 2.21,-0.69 4.35,-1.2 6.43,-1.52 2.07,-0.32 3.87,-0.48 5.39,-0.48 2.21,0 4.26,0.22 6.15,0.66 1.89,0.44 3.52,1.11 4.87,2 1.36,0.9 2.42,2.02 3.18,3.36 0.76,1.33 1.14,2.88 1.14,4.63 0,1.66 -0.47,3.41 -1.39,5.25 -1.75,3.27 -4.03,5.82 -6.85,7.65 -2.81,1.82 -5.94,3.2 -9.4,4.11 -0.83,0.23 -1.68,0.36 -2.56,0.38 -0.87,0.03 -1.75,0.09 -2.63,0.17 -0.41,-0.09 -0.66,-0.22 -0.73,-0.38 -0.07,-0.16 0.08,-0.33 0.45,-0.52 1.66,-0.78 3.25,-1.49 4.77,-2.14 1.52,-0.65 2.96,-1.36 4.32,-2.14 1.36,-0.79 2.65,-1.68 3.87,-2.7 1.22,-1.02 2.34,-2.28 3.35,-3.81 1.38,-2.02 2.07,-4.19 2.07,-6.5 0,-1.75 -0.51,-3.14 -1.52,-4.18 -1.02,-1.05 -2.68,-1.88 -4.98,-2.53 -1.75,2.82 -3.46,5.59 -5.15,8.34 -1.68,2.75 -3.28,5.52 -4.8,8.34 -1.52,2.81 -2.95,5.68 -4.26,8.6 -1.31,2.93 -2.47,5.94 -3.49,9.03 -0.37,0.97 -0.7,1.96 -1,2.98 -0.3,1.01 -0.45,2.05 -0.45,3.11 0,0.73 0.1,1.41 0.28,2 -0.46,0.07 -0.8,0.1 -1.04,0.1 -1.1,0 -1.84,-0.35 -2.23,-1.04 -0.39,-0.69 -0.59,-1.75 -0.59,-3.18 0,-0.79 0.06,-1.58 0.17,-2.38 0.11,-0.8 0.28,-1.58 0.52,-2.32 1.94,-5.76 4.26,-11.24 6.95,-16.45 2.7,-5.21 5.8,-10.25 9.3,-15.13 0.23,-0.32 0.44,-0.62 0.62,-0.9 0.18,-0.28 0.39,-0.58 0.62,-0.9zm7.74 34.38c0.92,-2.58 1.83,-5.04 2.73,-7.36 0.9,-2.32 1.93,-4.64 3.08,-6.95 0.18,-0.37 0.49,-0.73 0.93,-1.07 0.44,-0.35 0.84,-0.52 1.21,-0.52 0.83,0 1.46,0.08 1.9,0.24 0.44,0.16 0.54,0.56 0.31,1.21l-2.42 6.29 0.55 -0.69c0.73,-0.92 1.49,-1.86 2.28,-2.8 0.79,-0.94 1.59,-1.81 2.42,-2.59 0.83,-0.79 1.68,-1.42 2.56,-1.9 0.87,-0.48 1.73,-0.73 2.56,-0.73 0.65,0 1.17,0.24 1.59,0.73 0.41,0.48 0.62,1.14 0.62,1.97 0,0.79 -0.22,1.59 -0.66,2.42 -0.44,0.83 -1,1.59 -1.69,2.28 -0.69,0.69 -1.45,1.25 -2.28,1.69 -0.83,0.44 -1.62,0.66 -2.35,0.66 0.23,-0.51 0.48,-1.05 0.73,-1.62 0.25,-0.58 0.49,-1.11 0.73,-1.62 0.14,-0.23 0.31,-0.56 0.52,-1 0.21,-0.44 0.35,-0.77 0.45,-1 -0.1,-0.18 -0.3,-0.28 -0.62,-0.28 -3.04,2.25 -5.66,5 -7.84,8.22 -2.19,3.22 -4.11,6.63 -5.77,10.23 -1.15,0.46 -1.93,0.54 -2.31,0.24 -0.39,-0.3 -0.7,-0.79 -0.93,-1.49l1.73 -4.56zm26.88 -15.72c-0.46,1.75 -1.03,3.46 -1.69,5.15 -0.66,1.68 -1.37,3.31 -2.11,4.87 -0.32,0.73 -0.67,1.51 -1.04,2.32 -0.37,0.8 -0.69,1.58 -0.97,2.32l-0.21 0.55c-0.09,0.28 -0.2,0.56 -0.31,0.86 -0.11,0.3 -0.17,0.59 -0.17,0.86 0,0.46 0.04,0.89 0.14,1.28 0.1,0.39 0.41,0.63 0.97,0.73 1.15,-0.28 2.08,-0.8 2.8,-1.59 0.72,-0.79 1.32,-1.56 1.83,-2.35 0.37,-0.51 0.75,-1.03 1.14,-1.56 0.39,-0.53 0.91,-1.1 1.55,-1.69 0.14,0.04 0.35,0.21 0.62,0.48 -0.18,0.32 -0.37,0.65 -0.55,0.97 -0.14,0.28 -0.28,0.58 -0.45,0.9 -0.16,0.32 -0.31,0.6 -0.45,0.83 -0.46,0.87 -0.92,1.7 -1.38,2.49 -0.46,0.79 -0.98,1.49 -1.56,2.11 -0.58,0.62 -1.27,1.11 -2.07,1.49 -0.8,0.37 -1.76,0.55 -2.87,0.55 -1.38,0 -2.36,-0.35 -2.94,-1.07 -0.58,-0.72 -0.86,-1.83 -0.86,-3.35 0,-0.69 0.18,-1.62 0.55,-2.76 0.37,-1.15 0.82,-2.38 1.35,-3.66 0.53,-1.29 1.1,-2.58 1.69,-3.87 0.6,-1.29 1.15,-2.46 1.66,-3.52l1.04 -2.21c0.51,-1.11 1.31,-1.66 2.42,-1.66 0.28,0 0.55,0.04 0.83,0.14 0.28,0.09 0.6,0.21 0.97,0.35l0.07 0.07zm-0.98 -3.99c-0.04,-0.22 -0.08,-0.46 -0.1,-0.69 -0.03,-0.22 -0.03,-0.46 -0.03,-0.68 0,-1.2 0.35,-2.28 1.04,-3.24 0.69,-0.97 1.68,-1.45 2.97,-1.45 0.51,0 0.93,0.1 1.28,0.28 0.35,0.18 0.52,0.6 0.52,1.24 0,0.5 -0.16,1.06 -0.48,1.68 -0.32,0.62 -0.7,1.21 -1.14,1.76 -0.44,0.54 -0.9,1.01 -1.38,1.37 -0.48,0.37 -0.86,0.55 -1.14,0.55 -0.46,0 -0.94,-0.25 -1.45,-0.76l-0.07 -0.07zm19.91 11.77l1.17 -1.45c0.55,-0.74 1.11,-1.48 1.69,-2.22 0.58,-0.73 1.24,-1.43 1.97,-2.07 0.73,-0.65 1.56,-1.23 2.49,-1.74 0.92,-0.51 2,-0.9 3.25,-1.17 0.04,0 0.09,-0.01 0.14,-0.03 0.04,-0.02 0.09,-0.03 0.14,-0.03 0.78,0 1.4,0.28 1.86,0.83 0.47,0.55 0.69,1.22 0.69,2 -0.09,2.12 -0.55,4.15 -1.37,6.12 -0.83,1.96 -1.7,3.9 -2.63,5.84 -0.37,0.73 -0.73,1.45 -1.07,2.14 -0.35,0.69 -0.66,1.36 -0.93,2 0,0.73 0.3,1.04 0.9,0.9l-0.07 0c0.09,-0.04 0.22,-0.07 0.38,-0.07 0.16,0 0.28,0 0.38,0 0.41,0 0.85,-0.2 1.31,-0.59 0.46,-0.39 0.9,-0.87 1.31,-1.45 0.41,-0.58 0.81,-1.2 1.2,-1.87 0.4,-0.66 0.78,-1.3 1.14,-1.9 0.37,-0.83 0.86,-1.55 1.45,-2.14 0.04,0.28 0.07,0.53 0.07,0.76 0,0.22 0,0.46 0,0.69 0,0.92 -0.28,1.92 -0.83,3 -0.55,1.08 -1.24,2.08 -2.07,3.01 -0.82,0.92 -1.71,1.68 -2.65,2.27 -0.94,0.6 -1.81,0.9 -2.59,0.9 -1.19,0 -2.15,-0.28 -2.86,-0.83 -0.72,-0.55 -1.07,-1.29 -1.07,-2.21 0,-0.64 0.09,-1.17 0.28,-1.59 0.37,-1.1 0.8,-2.27 1.31,-3.52 0.5,-1.24 0.98,-2.39 1.44,-3.46 0.51,-1.15 1.04,-2.39 1.59,-3.72 0.55,-1.34 1.04,-2.63 1.45,-3.87 -0.04,-0.04 -0.1,-0.06 -0.14,-0.04 -0.04,0.03 -0.1,0.01 -0.14,-0.03 -0.09,-0.04 -0.14,-0.08 -0.14,-0.1 0,-0.03 -0.03,-0.06 -0.07,-0.1 -1.24,0.51 -2.38,1.24 -3.42,2.21 -1.04,0.96 -2,2.07 -2.9,3.31 -0.9,1.24 -1.75,2.57 -2.56,4 -0.8,1.43 -1.58,2.82 -2.32,4.21 -0.69,1.34 -1.38,2.57 -2.07,3.72 -0.69,1.24 -1.41,1.87 -2.14,1.87 -0.65,0 -1.45,-0.32 -2.42,-0.97 0.51,-1.84 1.1,-3.71 1.76,-5.62 0.67,-1.91 1.32,-3.83 1.97,-5.75 0.32,-0.79 0.63,-1.58 0.93,-2.38 0.3,-0.8 0.59,-1.62 0.86,-2.45 0.04,-0.14 0.07,-0.34 0.07,-0.62 0,-0.37 -0.07,-0.8 -0.21,-1.31 -1.2,0.97 -2.35,2.05 -3.45,3.25 -1.11,1.2 -2.15,2.45 -3.14,3.77 -0.99,1.31 -1.94,2.66 -2.83,4.04 -0.9,1.38 -1.76,2.72 -2.59,4.01l-2.9 4.56 -1.52 -0.76 -1.87 -0.9 4.56 -10.51 4.49 -10.38 1.11 0.14c0.55,0.1 1.01,0.23 1.38,0.41 0.37,0.18 0.55,0.65 0.55,1.38 0,0.74 -0.16,1.54 -0.48,2.39 -0.32,0.85 -0.66,1.75 -1.04,2.67l-0.62 1.8 1.04 -1.52c0.6,-0.87 1.24,-1.75 1.9,-2.63 0.66,-0.87 1.38,-1.66 2.14,-2.35 0.76,-0.69 1.58,-1.25 2.45,-1.69 0.87,-0.44 1.84,-0.66 2.9,-0.66 0.28,0 0.67,0.06 1.17,0.17 0.51,0.11 0.86,0.22 1.04,0.31 0.28,0.23 0.45,0.56 0.52,1 0.07,0.44 0.07,0.96 0,1.56 -0.07,0.6 -0.18,1.24 -0.35,1.93 -0.16,0.69 -0.34,1.36 -0.52,2l-0.48 1.52zm16.98 6.63c-0.14,0.41 -0.22,0.86 -0.24,1.35 -0.03,0.48 0.06,0.92 0.24,1.31 0.18,0.39 0.51,0.72 0.97,0.97 0.46,0.25 1.11,0.35 1.94,0.31 1.2,-0.04 2.38,-0.31 3.52,-0.79 1.15,-0.48 2.22,-1.1 3.21,-1.83 0.99,-0.73 1.91,-1.55 2.76,-2.42 0.86,-0.87 1.56,-1.77 2.11,-2.7l0.35 0.35c0.09,0.09 0.32,0.23 0.69,0.41 -0.6,1.34 -1.42,2.63 -2.45,3.87 -1.04,1.24 -2.2,2.32 -3.49,3.25 -1.29,0.92 -2.69,1.65 -4.18,2.2 -1.49,0.54 -3.01,0.82 -4.53,0.82 -1.89,0 -3.26,-0.53 -4.11,-1.59 -0.85,-1.05 -1.28,-2.39 -1.28,-4.01 0,-1.84 0.42,-3.76 1.28,-5.76 0.86,-2 1.97,-3.84 3.35,-5.53 1.38,-1.68 2.94,-3.06 4.66,-4.14 1.73,-1.08 3.46,-1.62 5.22,-1.62 1.11,0 2,0.35 2.66,1.04 0.66,0.69 1,1.56 1,2.63 0,1.48 -0.34,2.74 -1,3.8 -0.67,1.06 -1.52,2 -2.56,2.83 -1.04,0.83 -2.21,1.56 -3.52,2.21 -1.31,0.65 -2.62,1.24 -3.9,1.8l-2.7 1.24zm1.07 -2.78l0.28 -0.21c-0.04,0.1 -0.07,0.21 -0.07,0.35l-0.21 -0.14zm8.73 -10.01c-0.83,0.18 -1.68,0.58 -2.56,1.17 -0.87,0.6 -1.69,1.35 -2.45,2.25 -0.76,0.9 -1.45,1.9 -2.07,3.01 -0.62,1.11 -1.07,2.24 -1.35,3.39l2.21 -1.45c0.83,-0.55 1.65,-1.1 2.45,-1.62 0.8,-0.53 1.55,-1.06 2.21,-1.59 0.66,-0.53 1.2,-1.07 1.59,-1.62 0.39,-0.55 0.59,-1.11 0.59,-1.66 0,-0.6 -0.21,-1.22 -0.62,-1.87zm13.46 -1.62c-0.46,1.75 -1.03,3.46 -1.69,5.15 -0.66,1.68 -1.37,3.31 -2.11,4.87 -0.32,0.73 -0.67,1.51 -1.04,2.32 -0.37,0.8 -0.69,1.58 -0.97,2.32l-0.21 0.55c-0.1,0.28 -0.2,0.56 -0.31,0.86 -0.11,0.3 -0.17,0.59 -0.17,0.86 0,0.46 0.04,0.89 0.14,1.28 0.09,0.39 0.41,0.63 0.97,0.73 1.15,-0.28 2.08,-0.8 2.8,-1.59 0.72,-0.79 1.32,-1.56 1.83,-2.35 0.37,-0.51 0.75,-1.03 1.14,-1.56 0.39,-0.53 0.91,-1.1 1.56,-1.69 0.14,0.04 0.35,0.21 0.62,0.48 -0.18,0.32 -0.37,0.65 -0.55,0.97 -0.14,0.28 -0.29,0.58 -0.45,0.9 -0.16,0.32 -0.31,0.6 -0.45,0.83 -0.46,0.87 -0.92,1.7 -1.38,2.49 -0.46,0.79 -0.98,1.49 -1.55,2.11 -0.58,0.62 -1.27,1.11 -2.07,1.49 -0.8,0.37 -1.76,0.55 -2.87,0.55 -1.38,0 -2.36,-0.35 -2.94,-1.07 -0.58,-0.72 -0.86,-1.83 -0.86,-3.35 0,-0.69 0.18,-1.62 0.55,-2.76 0.37,-1.15 0.82,-2.38 1.35,-3.66 0.53,-1.29 1.1,-2.58 1.69,-3.87 0.6,-1.29 1.15,-2.46 1.66,-3.52l1.04 -2.21c0.51,-1.11 1.31,-1.66 2.42,-1.66 0.28,0 0.55,0.04 0.83,0.14 0.28,0.09 0.6,0.21 0.97,0.35l0.07 0.07zm-0.98 -3.99c-0.04,-0.22 -0.08,-0.46 -0.1,-0.69 -0.03,-0.22 -0.03,-0.46 -0.03,-0.68 0,-1.2 0.35,-2.28 1.04,-3.24 0.69,-0.97 1.68,-1.45 2.97,-1.45 0.51,0 0.93,0.1 1.28,0.28 0.35,0.18 0.52,0.6 0.52,1.24 0,0.5 -0.16,1.06 -0.48,1.68 -0.32,0.62 -0.7,1.21 -1.14,1.76 -0.44,0.54 -0.9,1.01 -1.38,1.37 -0.48,0.37 -0.86,0.55 -1.14,0.55 -0.46,0 -0.94,-0.25 -1.45,-0.76l-0.07 -0.07zm0.36 19.71c0.92,-2.58 1.83,-5.04 2.73,-7.36 0.9,-2.32 1.93,-4.64 3.08,-6.95 0.18,-0.37 0.49,-0.73 0.93,-1.07 0.44,-0.35 0.84,-0.52 1.21,-0.52 0.83,0 1.46,0.08 1.9,0.24 0.44,0.16 0.54,0.56 0.31,1.21l-2.42 6.29 0.55 -0.69c0.73,-0.92 1.49,-1.86 2.28,-2.8 0.79,-0.94 1.59,-1.81 2.42,-2.59 0.83,-0.79 1.68,-1.42 2.56,-1.9 0.87,-0.48 1.73,-0.73 2.56,-0.73 0.65,0 1.17,0.24 1.59,0.73 0.41,0.48 0.62,1.14 0.62,1.97 0,0.79 -0.22,1.59 -0.66,2.42 -0.44,0.83 -1,1.59 -1.69,2.28 -0.69,0.69 -1.45,1.25 -2.28,1.69 -0.83,0.44 -1.62,0.66 -2.35,0.66 0.23,-0.51 0.48,-1.05 0.73,-1.62 0.25,-0.58 0.49,-1.11 0.73,-1.62 0.14,-0.23 0.31,-0.56 0.52,-1 0.21,-0.44 0.35,-0.77 0.45,-1 -0.1,-0.18 -0.3,-0.28 -0.62,-0.28 -3.04,2.25 -5.66,5 -7.84,8.22 -2.19,3.22 -4.11,6.63 -5.77,10.23 -1.15,0.46 -1.93,0.54 -2.31,0.24 -0.39,-0.3 -0.7,-0.79 -0.93,-1.49l1.73 -4.56zm33.03 -17.23c1.38,0 2.65,0.55 3.8,1.66 0.51,-0.23 0.86,-0.35 1.04,-0.38 0.18,-0.03 0.51,-0.03 0.97,-0.03 0.51,0 0.93,0.04 1.28,0.14 0.35,0.1 0.52,0.46 0.52,1.11 0,0.5 -0.09,0.98 -0.28,1.45 -0.28,0.64 -0.56,1.26 -0.86,1.86 -0.3,0.6 -0.61,1.2 -0.93,1.8 -0.87,1.66 -1.73,3.45 -2.56,5.36 -0.83,1.91 -1.45,3.77 -1.87,5.55l0 0.28c0,0.14 0,0.31 0,0.52 0,0.21 0.03,0.41 0.07,0.59 0.1,0.28 0.14,0.54 0.14,0.76 0.32,0.14 0.65,0.11 0.97,-0.07 0.32,-0.18 0.66,-0.46 1,-0.83 0.35,-0.36 0.68,-0.81 1,-1.35 0.32,-0.53 0.62,-1.04 0.9,-1.55 0.37,-0.55 0.72,-1.09 1.04,-1.59 0.32,-0.51 0.76,-1.02 1.31,-1.52 -0.23,0.64 -0.38,1.09 -0.45,1.35 -0.07,0.25 -0.1,0.41 -0.1,0.48 0,0.07 0,0.09 0,0.07 0,-0.03 0,0.01 0,0.1 -0.14,0.73 -0.32,1.53 -0.55,2.38 -0.23,0.85 -0.58,1.65 -1.04,2.38 -0.46,0.73 -1.04,1.35 -1.76,1.83 -0.72,0.48 -1.62,0.73 -2.73,0.73 -1.11,0 -2,-0.32 -2.7,-0.97 -0.69,-0.65 -1.04,-1.63 -1.04,-2.97 0,-1.2 0.11,-2.44 0.35,-3.73 0,-0.09 0,-0.2 0,-0.31 0,-0.11 0.03,-0.22 0.07,-0.31 -0.23,0.23 -0.41,0.44 -0.52,0.62 -0.11,0.18 -0.27,0.39 -0.45,0.62 -1.15,1.34 -2.31,2.57 -3.45,3.7 -1.15,1.13 -2.58,2.08 -4.28,2.87 -0.28,0.14 -0.68,0.25 -1.21,0.35 -0.53,0.1 -0.91,0.14 -1.14,0.14 -0.97,0 -1.8,-0.35 -2.49,-1.04 -0.69,-0.69 -1.04,-1.59 -1.04,-2.7 0,-1.94 0.35,-3.83 1.07,-5.69 0.72,-1.87 1.68,-3.63 2.9,-5.29 1.22,-1.66 2.63,-3.13 4.22,-4.41 1.59,-1.3 3.28,-2.31 5.08,-3.04 0.65,-0.23 1.27,-0.44 1.87,-0.62 0.6,-0.18 1.22,-0.28 1.87,-0.28zm3.04 3.87c-0.09,0 -0.14,-0.04 -0.14,-0.14l0.07 -0.07 0.07 0.21zm-2.35 2.92c0.37,-0.51 0.73,-1.01 1.11,-1.52 0.37,-0.51 0.73,-1.01 1.11,-1.52 -0.92,-0.73 -1.8,-1.11 -2.63,-1.11 -0.51,0 -1,0.11 -1.49,0.35 -0.48,0.23 -0.93,0.51 -1.35,0.83 -2.58,1.84 -4.74,4.04 -6.5,6.6 -1.75,2.56 -2.93,5.47 -3.52,8.74 0.14,0.14 0.21,0.21 0.21,0.21 0.18,0.18 0.41,0.28 0.69,0.28 0.32,0 0.75,-0.14 1.28,-0.41 0.53,-0.28 1.07,-0.63 1.62,-1.07 0.55,-0.44 1.08,-0.91 1.59,-1.42 0.51,-0.51 0.92,-0.97 1.24,-1.38l6.63 -8.57z"/>
  <path class="fil2" d="M92.79 5.23c-0.33,-0.04 -0.65,-0.06 -0.97,-0.06 -0.33,0 -0.65,0 -0.97,0 -2.03,0 -4.23,0.36 -6.59,1.07 -2.35,0.71 -4.55,1.71 -6.58,3.02 -2.03,1.3 -3.73,2.89 -5.09,4.75 -1.36,1.87 -2.04,3.98 -2.04,6.34 0,2.44 1.18,4.77 3.53,7.01 -0.21,0.08 -0.4,0.12 -0.58,0.12 -0.18,0 -0.37,0 -0.58,0 -0.94,0 -1.78,-0.21 -2.56,-0.61 -0.77,-0.4 -1.42,-0.95 -1.97,-1.64 -0.55,-0.69 -0.97,-1.5 -1.27,-2.44 -0.3,-0.94 -0.46,-1.93 -0.46,-2.98 0,-2.07 0.47,-3.96 1.4,-5.67 0.94,-1.71 2.16,-3.21 3.69,-4.51 1.52,-1.3 3.25,-2.43 5.18,-3.38 1.93,-0.95 3.87,-1.74 5.82,-2.34 1.95,-0.61 3.84,-1.06 5.67,-1.34 1.83,-0.28 3.41,-0.43 4.75,-0.43 1.95,0 3.75,0.19 5.42,0.58 1.67,0.39 3.1,0.98 4.29,1.77 1.2,0.79 2.13,1.78 2.8,2.96 0.67,1.17 1.01,2.54 1.01,4.08 0,1.46 -0.41,3.01 -1.23,4.63 -1.55,2.89 -3.56,5.13 -6.04,6.74 -2.47,1.61 -5.24,2.82 -8.28,3.62 -0.73,0.21 -1.49,0.32 -2.25,0.34 -0.77,0.02 -1.55,0.08 -2.31,0.15 -0.37,-0.08 -0.58,-0.19 -0.64,-0.34 -0.06,-0.14 0.07,-0.29 0.4,-0.46 1.46,-0.68 2.86,-1.32 4.2,-1.89 1.34,-0.57 2.61,-1.2 3.81,-1.89 1.2,-0.69 2.34,-1.48 3.41,-2.38 1.07,-0.9 2.06,-2.01 2.95,-3.36 1.22,-1.78 1.83,-3.69 1.83,-5.73 0,-1.55 -0.45,-2.77 -1.34,-3.69 -0.9,-0.92 -2.36,-1.66 -4.39,-2.23 -1.54,2.48 -3.05,4.93 -4.54,7.35 -1.48,2.42 -2.89,4.87 -4.23,7.35 -1.34,2.47 -2.6,5.01 -3.75,7.58 -1.16,2.58 -2.18,5.24 -3.08,7.96 -0.33,0.85 -0.62,1.73 -0.88,2.63 -0.27,0.89 -0.4,1.8 -0.4,2.74 0,0.65 0.08,1.24 0.24,1.77 -0.4,0.06 -0.71,0.09 -0.91,0.09 -0.97,0 -1.62,-0.3 -1.96,-0.91 -0.34,-0.61 -0.52,-1.55 -0.52,-2.8 0,-0.69 0.05,-1.39 0.15,-2.1 0.1,-0.71 0.25,-1.39 0.46,-2.04 1.71,-5.08 3.75,-9.91 6.13,-14.5 2.38,-4.59 5.11,-9.04 8.2,-13.34 0.21,-0.28 0.39,-0.55 0.55,-0.79 0.16,-0.24 0.34,-0.51 0.55,-0.79zm19.62 15.12c1.22,0 2.34,0.49 3.35,1.46 0.45,-0.21 0.75,-0.31 0.91,-0.34 0.16,-0.02 0.45,-0.03 0.85,-0.03 0.45,0 0.82,0.04 1.13,0.12 0.3,0.08 0.46,0.4 0.46,0.97 0,0.44 -0.08,0.87 -0.24,1.28 -0.24,0.56 -0.49,1.11 -0.76,1.64 -0.27,0.53 -0.54,1.06 -0.82,1.58 -0.77,1.46 -1.52,3.04 -2.25,4.72 -0.73,1.68 -1.28,3.32 -1.64,4.9l0 0.24c0,0.12 0,0.27 0,0.46 0,0.18 0.02,0.36 0.06,0.52 0.08,0.24 0.12,0.47 0.12,0.67 0.28,0.12 0.57,0.1 0.85,-0.06 0.28,-0.16 0.58,-0.4 0.88,-0.73 0.3,-0.32 0.6,-0.72 0.88,-1.19 0.28,-0.46 0.55,-0.92 0.79,-1.36 0.33,-0.49 0.63,-0.96 0.91,-1.4 0.28,-0.45 0.67,-0.9 1.16,-1.34 -0.21,0.56 -0.34,0.96 -0.4,1.19 -0.06,0.22 -0.09,0.37 -0.09,0.43 0,0.06 0,0.08 0,0.06 0,-0.02 0,0.01 0,0.09 -0.12,0.65 -0.28,1.35 -0.49,2.09 -0.21,0.75 -0.51,1.45 -0.91,2.1 -0.4,0.65 -0.92,1.19 -1.55,1.61 -0.63,0.43 -1.43,0.64 -2.41,0.64 -0.98,0 -1.77,-0.28 -2.38,-0.85 -0.61,-0.57 -0.91,-1.44 -0.91,-2.62 0,-1.06 0.1,-2.15 0.3,-3.29 0,-0.08 0,-0.18 0,-0.27 0,-0.1 0.02,-0.19 0.06,-0.27 -0.21,0.21 -0.36,0.39 -0.46,0.55 -0.1,0.16 -0.24,0.34 -0.4,0.55 -1.01,1.18 -2.03,2.26 -3.05,3.26 -1.01,1 -2.28,1.83 -3.78,2.53 -0.24,0.12 -0.6,0.22 -1.07,0.3 -0.46,0.08 -0.8,0.12 -1,0.12 -0.85,0 -1.58,-0.3 -2.19,-0.91 -0.61,-0.61 -0.91,-1.4 -0.91,-2.38 0,-1.71 0.31,-3.37 0.94,-5.02 0.63,-1.64 1.49,-3.2 2.56,-4.66 1.07,-1.46 2.31,-2.76 3.72,-3.89 1.4,-1.14 2.89,-2.03 4.48,-2.68 0.57,-0.21 1.12,-0.39 1.64,-0.55 0.53,-0.16 1.07,-0.24 1.64,-0.24zm2.68 3.41c-0.08,0 -0.12,-0.04 -0.12,-0.12l0.06 -0.06 0.06 0.18zm-2.07 2.57c0.33,-0.45 0.65,-0.89 0.97,-1.34 0.33,-0.45 0.65,-0.89 0.97,-1.34 -0.81,-0.65 -1.58,-0.98 -2.31,-0.98 -0.45,0 -0.88,0.1 -1.31,0.3 -0.43,0.21 -0.82,0.45 -1.19,0.73 -2.28,1.62 -4.18,3.56 -5.73,5.82 -1.55,2.25 -2.58,4.82 -3.11,7.71 0.12,0.12 0.18,0.18 0.18,0.18 0.16,0.16 0.37,0.24 0.61,0.24 0.28,0 0.66,-0.12 1.13,-0.37 0.46,-0.24 0.94,-0.56 1.43,-0.94 0.49,-0.39 0.95,-0.8 1.4,-1.25 0.45,-0.45 0.81,-0.85 1.1,-1.22l5.85 -7.55zm12.24 -4.66c-0.4,1.55 -0.91,3.05 -1.49,4.54 -0.59,1.49 -1.21,2.92 -1.86,4.29 -0.28,0.65 -0.59,1.33 -0.91,2.04 -0.33,0.71 -0.61,1.39 -0.85,2.04l-0.18 0.49c-0.08,0.24 -0.18,0.49 -0.27,0.76 -0.1,0.27 -0.15,0.52 -0.15,0.76 0,0.4 0.04,0.78 0.12,1.13 0.08,0.34 0.37,0.56 0.85,0.64 1.01,-0.24 1.83,-0.71 2.47,-1.4 0.63,-0.69 1.17,-1.38 1.61,-2.07 0.33,-0.45 0.66,-0.91 1,-1.37 0.34,-0.46 0.8,-0.97 1.37,-1.49 0.12,0.04 0.3,0.18 0.55,0.43 -0.16,0.28 -0.33,0.57 -0.49,0.85 -0.12,0.24 -0.25,0.51 -0.4,0.79 -0.15,0.28 -0.27,0.53 -0.4,0.73 -0.4,0.77 -0.81,1.5 -1.22,2.19 -0.4,0.69 -0.86,1.31 -1.37,1.86 -0.51,0.55 -1.12,0.98 -1.83,1.31 -0.71,0.33 -1.55,0.49 -2.53,0.49 -1.22,0 -2.08,-0.31 -2.59,-0.94 -0.51,-0.63 -0.76,-1.61 -0.76,-2.95 0,-0.61 0.16,-1.42 0.49,-2.44 0.33,-1.01 0.72,-2.09 1.19,-3.23 0.46,-1.13 0.97,-2.28 1.49,-3.41 0.53,-1.13 1.01,-2.17 1.46,-3.11l0.91 -1.95c0.45,-0.97 1.16,-1.46 2.13,-1.46 0.24,0 0.49,0.04 0.73,0.12 0.24,0.08 0.53,0.18 0.85,0.3l0.06 0.06zm-0.87 -3.52c-0.04,-0.2 -0.07,-0.4 -0.09,-0.61 -0.02,-0.2 -0.03,-0.4 -0.03,-0.6 0,-1.06 0.3,-2.01 0.91,-2.86 0.61,-0.85 1.48,-1.28 2.62,-1.28 0.45,0 0.82,0.08 1.13,0.24 0.3,0.16 0.46,0.53 0.46,1.1 0,0.44 -0.14,0.94 -0.43,1.48 -0.28,0.55 -0.62,1.07 -1,1.55 -0.39,0.48 -0.79,0.89 -1.22,1.21 -0.43,0.33 -0.76,0.49 -1,0.49 -0.4,0 -0.83,-0.22 -1.28,-0.67l-0.06 -0.06zm32.61 -0.6c0.94,-1.63 1.87,-3.22 2.8,-4.79 0.94,-1.57 1.89,-3.12 2.86,-4.68 0.69,-1.18 1.5,-1.77 2.44,-1.77 0.33,0 0.68,0.05 1.07,0.15 0.39,0.1 0.8,0.31 1.25,0.64l-0.91 1.52c-2.52,4.15 -4.91,8.35 -7.19,12.59 -2.28,4.24 -4.04,8.73 -5.3,13.44l0 -0.06c-0.08,0.45 -0.14,0.88 -0.18,1.31 -0.04,0.43 -0.08,0.88 -0.12,1.37 0,0.21 0,0.42 0,0.64 0,0.23 -0.02,0.46 -0.06,0.7 1.42,-0.56 2.46,-1.26 3.11,-2.1 0.65,-0.83 1.28,-1.83 1.89,-3.02 0.21,-0.37 0.45,-0.81 0.73,-1.34 0.28,-0.53 0.57,-0.99 0.85,-1.4 0,0.12 -0.01,0.3 -0.03,0.55 -0.02,0.24 -0.03,0.41 -0.03,0.49 0,0.17 0,0.3 0,0.43 0,0.12 -0.04,0.3 -0.12,0.55 -0.33,0.9 -0.67,1.81 -1.04,2.74 -0.37,0.94 -0.81,1.79 -1.34,2.56 -0.53,0.77 -1.15,1.39 -1.86,1.87 -0.71,0.48 -1.55,0.72 -2.53,0.72 -0.94,0 -1.65,-0.34 -2.16,-1 -0.51,-0.67 -0.76,-1.59 -0.76,-2.77 0,-0.49 0.03,-0.98 0.09,-1.49 0.06,-0.51 0.13,-0.98 0.21,-1.43 0,-0.16 0.02,-0.28 0.06,-0.37 0.04,-0.08 0.06,-0.21 0.06,-0.37l-1.4 1.4c-0.69,0.69 -1.39,1.39 -2.1,2.08 -0.71,0.69 -1.44,1.33 -2.19,1.92 -0.75,0.59 -1.49,1.07 -2.22,1.44 -0.73,0.37 -1.44,0.55 -2.13,0.55 -0.61,0 -1.15,-0.12 -1.61,-0.37 -0.46,-0.24 -0.86,-0.56 -1.19,-0.94 -0.33,-0.38 -0.57,-0.81 -0.73,-1.28 -0.16,-0.46 -0.24,-0.9 -0.24,-1.31 0,-0.61 0.08,-1.21 0.24,-1.82l0 0.06c0.85,-3.37 2.28,-6.24 4.29,-8.62 2.01,-2.37 4.66,-4.17 7.95,-5.38 0.89,-0.33 1.74,-0.49 2.56,-0.49 1.1,0 2.05,0.28 2.86,0.85l2.13 -3.78zm-3.11 5.66c-0.04,0 -0.06,-0.02 -0.06,-0.06l0 -0.06 0.06 0.12zm-12.67 14.64c0.57,0 1.27,-0.27 2.1,-0.79 0.83,-0.53 1.71,-1.22 2.62,-2.07 0.91,-0.86 1.83,-1.81 2.77,-2.87 0.94,-1.06 1.77,-2.13 2.5,-3.23 0.73,-1.1 1.34,-2.15 1.83,-3.14 0.49,-0.99 0.75,-1.86 0.79,-2.59 -0.53,-0.28 -1.04,-0.43 -1.52,-0.43 -0.45,0 -0.88,0.09 -1.31,0.27 -0.43,0.18 -0.86,0.42 -1.31,0.7 -2.15,1.39 -3.9,3.01 -5.24,4.88 -1.34,1.87 -2.4,4.01 -3.17,6.4 -0.04,0.2 -0.07,0.38 -0.09,0.55 -0.02,0.16 -0.03,0.34 -0.03,0.55 0,0.08 0,0.21 0,0.4 0,0.18 0,0.37 0,0.58 0,0.21 0.01,0.39 0.03,0.55 0.02,0.16 0.03,0.24 0.03,0.24zm20.74 -3.47c-0.12,0.37 -0.19,0.76 -0.21,1.19 -0.02,0.43 0.05,0.81 0.21,1.16 0.16,0.34 0.45,0.63 0.85,0.85 0.4,0.22 0.98,0.31 1.71,0.27 1.06,-0.04 2.09,-0.27 3.11,-0.7 1.01,-0.43 1.96,-0.97 2.83,-1.61 0.88,-0.65 1.68,-1.36 2.44,-2.13 0.75,-0.77 1.37,-1.56 1.86,-2.38l0.3 0.3c0.08,0.08 0.28,0.21 0.61,0.37 -0.53,1.18 -1.25,2.31 -2.16,3.41 -0.91,1.1 -1.94,2.05 -3.08,2.86 -1.13,0.81 -2.37,1.45 -3.69,1.94 -1.32,0.48 -2.65,0.72 -3.99,0.72 -1.67,0 -2.87,-0.46 -3.62,-1.4 -0.75,-0.93 -1.13,-2.11 -1.13,-3.53 0,-1.62 0.37,-3.31 1.13,-5.08 0.75,-1.77 1.74,-3.39 2.95,-4.87 1.22,-1.48 2.59,-2.7 4.11,-3.65 1.52,-0.95 3.05,-1.43 4.6,-1.43 0.97,0 1.76,0.3 2.35,0.91 0.59,0.61 0.88,1.38 0.88,2.31 0,1.3 -0.3,2.41 -0.88,3.35 -0.59,0.94 -1.34,1.77 -2.25,2.5 -0.91,0.73 -1.95,1.38 -3.11,1.95 -1.16,0.57 -2.31,1.1 -3.44,1.58l-2.38 1.1zm0.94 -2.45l0.24 -0.18c-0.04,0.08 -0.06,0.18 -0.06,0.3l-0.18 -0.12zm7.69 -8.83c-0.73,0.16 -1.48,0.51 -2.25,1.04 -0.77,0.53 -1.49,1.19 -2.16,1.98 -0.67,0.79 -1.28,1.68 -1.83,2.65 -0.55,0.98 -0.94,1.97 -1.19,2.98l1.95 -1.28c0.73,-0.49 1.45,-0.97 2.16,-1.43 0.71,-0.46 1.36,-0.94 1.95,-1.4 0.59,-0.47 1.06,-0.94 1.4,-1.43 0.34,-0.49 0.52,-0.97 0.52,-1.46 0,-0.53 -0.18,-1.07 -0.55,-1.64z"/>
  <g id="_1805402510240">
   <path class="fil3" d="M229.67 34.6l10.05 -12.06c0.51,-0.61 1.19,-0.94 1.99,-0.95l11.18 -0.16c0.89,-0.01 1.66,0.38 2.18,1.1 0.52,0.72 0.64,1.57 0.35,2.41l-17.22 49.24c-0.37,1.06 -1.3,1.74 -2.42,1.77l-8.8 0.23c-0.9,0.02 -1.68,-0.36 -2.21,-1.09 -0.53,-0.73 -0.65,-1.6 -0.34,-2.44l10.26 -28.32 -7.47 -0.04c-0.54,-0 -1.04,-0.16 -1.46,-0.44 -0.46,0.85 -1.32,1.36 -2.31,1.36l-9.53 0 -1.3 3.08 7.31 0c0.91,0 1.69,0.42 2.2,1.18 0.5,0.76 0.59,1.64 0.23,2.48l-3.91 9.28c-0.42,1 -1.35,1.61 -2.43,1.61l-9.53 0 -4.08 9.67c-0.42,1 -1.35,1.61 -2.43,1.61l-9.28 0c-0.91,0 -1.69,-0.42 -2.2,-1.18 -0.5,-0.76 -0.59,-1.64 -0.23,-2.48l3.21 -7.62 -2.63 0 -4.08 9.67c-0.42,1 -1.35,1.61 -2.43,1.61l-9.28 0c-0.91,0 -1.69,-0.42 -2.2,-1.18 -0.5,-0.76 -0.59,-1.64 -0.23,-2.48l3.21 -7.62 -7.31 0c-0.91,0 -1.69,-0.42 -2.2,-1.18 -0.5,-0.76 -0.59,-1.64 -0.23,-2.48l3.91 -9.28c0.42,-1 1.35,-1.61 2.43,-1.61l9.53 0 1.3 -3.08 -7.31 0c-0.91,0 -1.69,-0.42 -2.2,-1.18 -0.5,-0.76 -0.59,-1.64 -0.23,-2.48l3.91 -9.28c0.42,-1 1.35,-1.61 2.43,-1.61l9.53 0 4.08 -9.67c0.42,-1 1.35,-1.61 2.43,-1.61l9.28 0c0.91,0 1.7,0.42 2.2,1.18 0.5,0.76 0.59,1.64 0.23,2.48l-3.21 7.62 2.63 0 4.08 -9.67c0.42,-1 1.35,-1.61 2.43,-1.61l9.28 0c0.91,0 1.69,0.42 2.2,1.18 0.5,0.76 0.59,1.64 0.23,2.48l-3.21 7.62 7.3 0c0.91,0 1.7,0.42 2.2,1.18 0.5,0.76 0.59,1.64 0.23,2.48l-0.12 0.28zm-32.06 13.69l1.3 -3.08 -2.63 0 -1.3 3.08 2.63 0z"/>
   <g>
    <path class="fil4" d="M193.92 22.01l9.28 0 -4.76 11.28 8.36 0 4.76 -11.28 9.28 0 -4.76 11.28 11.28 0 -3.91 9.28 -11.28 0 -3.52 8.36 11.28 0 -3.91 9.28 -11.28 0 -4.76 11.28 -9.28 0 4.76 -11.28 -8.36 0 -4.76 11.28 -9.28 0 4.76 -11.28 -11.28 0 3.91 -9.28 11.28 0 3.52 -8.36 -11.28 0 3.91 -9.28 11.28 0 4.76 -11.28zm5.44 28.92l3.52 -8.36 -8.36 0 -3.52 8.36 8.36 0z"/>
    <polygon class="fil5" points="252.94,24.08 235.71,73.32 226.91,73.55 241.39,33.56 235.94,41.7 227.23,41.65 241.75,24.24 "/>
   </g>
  </g>
 </g>
</svg>
